/* XPM */
static char *_7df121f6e82473aa8b7fbf3c76bcd91W27ZkPCDhUEJIuIp[] = {
/* columns rows colors chars-per-pixel */
"16 16 24 1 ",
"  c #FFFFFD",
". c #D5F17C",
"X c #D2F075",
"o c #FDFFF7",
"O c #E2F5A0",
"+ c #E7F7B2",
"@ c #DFF49C",
"# c white",
"$ c #F7FCE7",
"% c #DAF28C",
"& c #DAF286",
"* c #DCF391",
"= c #E9F8BA",
"- c #F9FDEF",
"; c #FBFEF2",
": c #E3F5A8",
"> c #F7FDE2",
", c #F3FBD4",
"< c #EEF9C6",
"1 c #B5E714",
"2 c #CEEF69",
"3 c #C4EC49",
"4 c #BAE922",
"5 c #CBEE54",
/* pixels */
"#  #-@.X..O-# ##",
" ##:X+>oo>+X+# #",
" #*@########%@# ",
"#:O#  ####o##*=#",
"$&#  #o$-;## #.;",
"O<# #o2334X# #=+",
"&;####,2$O1-##$*",
"%### #52#&3# #o%",
"%## #,1#>4,# #o%",
"&;# #,1*5=# ##$*",
"O<#  #<@-# # #=+",
"$&# ##### # ##&;",
"#:O#       ##*=#",
" #%@########%@# ",
" ##:.=$oo>+X+# #",
"#  #$@.XX.O-# ##"
};
