/* XPM */
static char *_b09a043421b4f13b626cbb7ded300f8tTd3fydW51ntCP6T[] = {
/* columns rows colors chars-per-pixel */
"64 64 57 1 ",
"  c white",
". c #B4E60F",
"X c #B7E71A",
"o c #B6E712",
"O c #FEFFFB",
"+ c #B2E608",
"@ c #ADE400",
"# c #FFFFFD",
"$ c #FFFFFE",
"% c #B0E503",
"& c #BDEA2F",
"* c #B5E718",
"= c #BCE928",
"- c #C8EE52",
"; c #F9FEED",
": c #C0EB38",
"> c #F0FAD1",
", c #D7F181",
"< c #C6EC4B",
"1 c #B9E822",
"2 c #D4F079",
"3 c #FCFEF5",
"4 c #F4FBD7",
"5 c #C3EC43",
"6 c #F5FCE1",
"7 c #E5F6AB",
"8 c #F9FDE9",
"9 c #E3F598",
"0 c #EFF9CA",
"q c #E2F5A2",
"w c #DBF390",
"e c #EAF8BE",
"r c #CFEF69",
"t c #ECF8C3",
"y c #E7F7B3",
"u c #BDE80F",
"i c #B2E613",
"p c #CCEF60",
"a c #D7F289",
"s c #B4E82E",
"d c #E6F9DA",
"f c #F9FFFF",
"g c #FBFCC9",
"h c #D0ED37",
"j c #EAFBEE",
"k c #DDF6CA",
"l c #CFEF73",
"z c #BAEB55",
"x c #E6F47A",
"c c #CDF19D",
"v c #DDF059",
"b c #D3F3AC",
"n c #EFF7A5",
"m c #BFEC63",
"M c #F4F9B5",
"N c #F2FDFC",
"B c #F1FDF6",
/* pixels */
"                    $#O     ;8;;;;8      O#                     ",
"                  $O   ;89,,=1====1la2e8$  $O                   ",
"                $O  3>,&X%@@%%%%%%%@@@o*<76  #O                 ",
"               O  37&o%%%1-5aeyyyyew5<+%@%*-7  $O               ",
"             #$ ;q&%%%&,e4            typ:%@+<q  O              ",
"            O  91%%.r0;   O$OOOOOOOO$    37-o%+<> $$            ",
"           O 3r%+.24   OO#            OOO   t5+%o7  O           ",
"          O e1%+<0  #O$                  $OO  91%%-3 O          ",
"        $O w.%=q  O#                        O  8r.%&4 O         ",
"       $# 7+%-; $O                           $O  eX%&0 O        ",
"       O ,+@2  O                               #O 6&%o> O       ",
"      O q%.a  O                                  O 6<%=8 O      ",
"     O e.%a $#                                    O O:%5$ $     ",
"    # 61%r O$                                      O 61%p #     ",
"      5@5  #                                        O to%9 O    ",
"   O 7%&; O                                          O q%&; $   ",
"  # 6X@w O                                           $$ :@p O   ",
"  O w@p #                 $$$$$$$$$$$$$               # 4X.t O  ",
" # 61%0 O                $              O#             O l@- #  ",
" O ,@- $                # #OOOOOOOOOOOO   #            # 0oo4 # ",
"$ 3&+> O               O g=&&&&&&&&&&&&<ad $            O 2@, O ",
"O q@- #               # 8=+oooooooooo...%icf$           # >.=; $",
"O r@q O              $ Oh@o..........XX*XX%b #           $ 5%t O",
" 3=.4 #              # 9=5::::::::::&.i**XosN $          O ,@, O",
" 0%:# $                O            OnX***o*d #          # 6.5  ",
" w@2 O                    # 4>>>06 $  x+X*o*d #          $ 31o6 ",
" <%e O                   O Mu+.%sd #O gu**osj $           # r@q ",
" -@4 #                  O 4ui1osj O # Mu*X.zf             O 2@y ",
"3:X6 #                 $ 3h+Xoik O  O 9+XX+a #            O 9@w ",
"0%- O                  O x+XX+c O   $ v+XXid #            # 4%< ",
">+< $                 # gu*X+zf#   # gu*X+mf#             # >%- ",
">%< #                 # v+XXik O   O x+XX+k O             # >%- ",
">%< #                # 4u*X+zf#   # gu*X+mf#              # >%- ",
">+< $                O 9+XX.b O  $ $h+Xosj #              # >%- ",
"0%- O                # v+Xo1j $  O x+XX+k O               # 4%< ",
"3:X6 #              $ Oh.X.5N  $O n.*X+c #                O 9@w ",
" -@4 #              $ ;hiX.zfOO$ Mu*o%c #                 O 2@y ",
" <%e O              $ 3hiXosj   9u*.ib #                  # r@q ",
" w@2 O               # v+XX.me7<.*+sk #                  $ 31o6 ",
" 0%:# $              # guiXXo++++ilB O                   # 4.5  ",
" 3=.4 #               # n=+%%+.=ld  O                    O q@2 O",
"O r@q O                # ;7,,we;  #$                     # -@9 O",
"O q@- #                 O       ##                      # >+=3 $",
"$ 3=+> O                 $OOOOO$                        O 2@, O ",
" O ,@- $                                               $ ;1.4 # ",
" # 4.+0 O                                              O 2@- #  ",
"  # l@p #                                             # 4X.t O  ",
"  # 8*@w O                                           $$ :@p O   ",
"   O 7%&; O                                          O q%&; $   ",
"      5@5  #                                        O to%9 O    ",
"    # 61%r O$                                      O 61%p #     ",
"     O e.%a $#                                    O O:%5$ $     ",
"      O q%oa  O                                  O 6<%=8 O      ",
"       O 2%%2  O                               $O 6&%o> O       ",
"       $  a.%-3 O$                            O  eX%&0 O        ",
"        $$ w.%=7  O$                        OO Or.%&4 O         ",
"         $O e1%.,3  O#                   $O#  05%+-3 O          ",
"           O 3r%%&28  $OO$            #OO   ep*%.,  O           ",
"            O  91%%=20    #$OOOOOOOO$O   37-o@%<> $$            ",
"             #$ 82&@%o5,t3            6yp:%@+<q  O              ",
"               O  ;,:+@%%:<-7yyyyyea5-1%%%o-7  $O               ",
"                $O  Oyl&*%@@%%%%%%%@@@.*-,>  #O                 ",
"                  $O   ;89,,&1====1<w2e8$  #O                   ",
"                    $OO     ;8;;;;8O     O#                     "
};
