/* XPM */
static char *d3102c591cb74f7cba5d0d25fe9955efBHSoZir7fB9air9q[] = {
/* columns rows colors chars-per-pixel */
"32 32 36 1 ",
"  c white",
". c #C3EB3E",
"X c #F1FAD3",
"o c #FCFEF6",
"O c #B9E821",
"+ c #FEFFFB",
"@ c #D9F289",
"# c #FFFFFD",
"$ c #FEFFFE",
"% c #B7E814",
"& c #B3E60B",
"* c #CAEE5A",
"= c #BEEA34",
"- c #AFE501",
"; c #E9F7B5",
": c #F6FCE6",
"> c #E6F7AD",
", c #BCE92B",
"< c #F8FDEB",
"1 c #C9EE51",
"2 c #F5FCDE",
"3 c #D6F17B",
"4 c #D1F073",
"5 c #D0EF6C",
"6 c #E0F599",
"7 c #DEF392",
"8 c #EFF9C7",
"9 c #F3FBD8",
"0 c #C3EC48",
"q c #CFEF5F",
"w c #E1F5A1",
"e c #ECF8C0",
"r c #CAEF68",
"t c #BBEA3D",
"y c #F6FDF4",
"u c #E4F7C5",
/* pixels */
"       $+   X>345@;2   +#       ",
"      +  :3=O,1**1,O.@<  +      ",
"     + <r%0w:#    +96.%3$ +     ",
"    + ;%.X    $++$    e,,X +    ",
"   + 7&>  ++$#    #$+$  @&; +   ",
"  + @%2 ++            +  ;&; +  ",
" + >%: +               #+ e&X + ",
"$ :%8 +      #######    $+ 7,  #",
"+ *4 +      $       +$    $ 0@ +",
" XOo #     # ooooooo  $   + 8Oo ",
" 53 +     + >OOOOO,=r: $   + 16 ",
"+=X $    # :.O===,%&-0$    + w1 ",
"e.         oo 292 :.%O: $  # <=<",
"7q +       $ >%%u #3-=y $     .8",
"5@ +      # 2%-w + 1-r #    + qw",
"*6 +      $ q-* + X%&u +    + 5@",
"*6 +     # 9%&u + q-r #     + 5@",
"5@ +     + w-=y  6-ty $     + qw",
"7q +     + 7-t$ 6-t< +        .8",
"e.       + 8&-0.-4o +      # <.<",
"+=X $     $ ;*04X  $       + >0 ",
" 53 +      #    $+$        + 16 ",
" XOo #      +$$+$         + XOo ",
"+ 14 +                    $ .@ +",
"$ :%8 +                  + 7,  #",
" + >%: +                + e&X + ",
"  + @%2 +$            +$ ;&; +  ",
"   $ @&>  ++#      $+$  @&; +   ",
"   #$ ;%*9    +++$    8.OX +    ",
"     + <*%1><      26.%3+ +     ",
"      +  94,O=***1,O=@<  +      ",
"       $+   X>4453;2   +#       "
};
