/* XPM */
static char *_c482ad338b14ae5daf5c40f2ac842faKzH8Y7x2c0maWuC6[] = {
/* columns rows colors chars-per-pixel */
"128 128 64 1 ",
"  c white",
". c #B8E81D",
"X c #FDFFF8",
"o c #AFE501",
"O c #FFFFFE",
"+ c #FFFFFD",
"@ c #B1E504",
"# c #B6E716",
"$ c #B7E71A",
"% c #FEFFFB",
"& c #B3E609",
"* c #B6E718",
"= c #B9E822",
"- c #B4E60F",
"; c #B5E712",
": c #ABE400",
"> c #FBFEF2",
", c #BDE92D",
"< c #CBEF5E",
"1 c #C6ED4B",
"2 c #F7FDE4",
"3 c #B2E71A",
"4 c #B9E706",
"5 c #F3FBDC",
"6 c #CFEF69",
"7 c #E4F6AA",
"8 c #F9FDEC",
"9 c #D3F076",
"0 c #E1F5A3",
"q c #DEF497",
"w c #C3EC41",
"e c #C9EE55",
"r c #F1FAD3",
"t c #D2EF72",
"y c #F0FACC",
"u c #DBF38C",
"i c #EDF9C4",
"p c #EAF8BA",
"a c #E6F7B2",
"s c #D7F181",
"d c #BFEA34",
"f c #FEFFFF",
"g c #F6FFFF",
"h c #EBFDFD",
"j c #FFFED4",
"k c #D5F07A",
"l c #E2F047",
"z c #B8EB6E",
"x c #F2F681",
"c c #C3E80D",
"v c #D4EC12",
"b c #ECF364",
"n c #C3EF9E",
"m c #D3EC2B",
"M c #DCF9F5",
"N c #FDFBB6",
"B c #CBF3CC",
"V c #C5F1BB",
"C c #D7F6D7",
"Z c #B4E83D",
"A c #B4E851",
"S c #BBEC89",
"D c #FCFAA0",
"F c #CAEF7B",
/* pixels */
"                                                   OOOO                OOOOOO                                                   ",
"                                              OOO+      >8>>>>>>>>>>>8O      +OOO                                               ",
"                                            O%    >28282;&&&&&&&&&&&-:qX22228    +O                                             ",
"                                         +++  >55><:&@@@$$$$$$$$$$$$$$-@@@&od8552   %+O                                         ",
"                                       %    r8<:&o;.$$$$*$$$$$$$$$$$$$..$$$.#@@:,2y    %+                                       ",
"                                    O%%  iyi@o-...$$$$$$#@@@@@@@@@@@@@@#$$$$*...#@:7ri>  %O                                     ",
"                                   %   5q:oo..$$$$.@o@@o;<<<<<<<<<<<<<<;o@@@$$$$*.=@@:kyy  X%                                   ",
"                                O%X  7i.:=..*..@o@:e666<u              u<666@ooo$....=&:=p8  XO                                 ",
"                               XO  is:o*.*..#o:<k96X     XXXXXXXXXXXXXX     kt9t@oo#.$$=.:6ap  X                                ",
"                             O>  q7$:=.*=-o:#u9%   OXXXX%             O%XXXX    ssu#:&=.*=&:.q2 X%                              ",
"                            %  at:o*.$.=:dqs7  OXXXO                        XXXX   0qe:o.$$=$:e0  X                             ",
"                           > 5s$o=.*=-:@uy   XXO                                XXX  2uqo@=##=@o9i >                            ",
"                         +>  w:$.#.=:wa0  X%%                                      %X   a6:..#$=:.2 >%                          ",
"                        %  q1@=##=@o05  %%                                           +XX 8a=:=$#=@wk  X                         ",
"                       > re#@.#..:9y  X%                                                X  rq:;=#$&@17 >                        ",
"                      X X,o$$*=o,y> %+                                                   OX  re:=$$.@-r X                       ",
"                     X 9d&.#.;:72  %                                                       %O 8i@&.#.&,e +                      ",
"                    X qo-$#.:<8  %O                                                          %  8u:.#$-o6 X                     ",
"                   X p@$$##;5>  +                                                             O+ X8d&$*$ou %O                   ",
"                  + 2-;$##oi  +                                                                 +  8;-**;..5 +                  ",
"                 + 1;;*$ot % O                                                                    O  0o.*#&=% O                 ",
"                % 9o**#@1                                                                           O 9o#*$&w OO                ",
"               % 0o.*;$,% O                                                                          % e;;*$@6 %O               ",
"              % io$*$@p %                                                                             % 2-;$.oq %               ",
"             % 2-##$ou X                                                                               X i@**.op %              ",
"            % %,-*$@6 X                                                                                 X qo$#$&5 %             ",
"           +  1@$$@w %                                                                                   X to$*-=X %            ",
"          O  to.$&,X O                                                                                    % 1@.$&w  +           ",
"            qo=$;;5 %                                                                                     O +,&$.o6O O          ",
"          + &$#$@p X                                                                                       % 2#;$=:5 +          ",
"         X a$#$oq X                                                                                         X i@;$-u %          ",
"        % r&-$-k %                                                                                          fX 0*#*o7 %         ",
"       + 5=-$=:2 +                                                                                            % &$##-p +        ",
"       X 7:=.@<X O                                                                                              so=.ot >        ",
"      O 21;.@d  %                                                                                             O  <o.;,2 %       ",
"      + 2:.-d8 %                                                                                               %  e&.@d2 O      ",
"        e;$@d X                                                                                                 X t:..:2 +      ",
"     + 6@$;.r O                                                                                                 O 8w-$;1X       ",
"     % w&$*-                                       O%%%%%%%%%%%%%%%%%%%%%%%%%%%+O                                % w&$;;        ",
"    % u&$.op O                                                                   +O                               +2-#*-< %     ",
"    X to=oq +                                    O jm,,,,,,,,,,,,,,,,,,,,,,,,w<FCg                                + i@.&w %     ",
"   % a@$.o7 %                                   Of%l&-------------------------;#=$zh                              + 5@$$@s %    ",
"   % 0o=@t %                                   OO b4$**********************#*###;;;$ng                             % 0o=ot %    ",
"  + r@$$@s X                                   + xc3###############################*;Sh O                          % a@..o7 %   ",
"  + 5@.&1 %                                   + Nv3#################################$@ng+                           X k@=o7 %   ",
"  O i@.&w %                                  + >v3$*$$$$$$$$$$$$$$$$$$$$$*##########**3C O                          X 6o=oq %   ",
"   X-#*-< %                                 O >lo&&&&&&&&&&&&&&&&&&&&&&&&&#*#########*-zg                           % u-$.or +  ",
"    =;;=                                    % Dw1111111111111111111111111w#&*########*;ZM f                          X w&.&2 +  ",
" O y$##->                                    +                           8xd-*#########3B O                          + t-$&7 O  ",
" % ,&$-eO                                     +XXXXXXXXXX>>>>>>>>>>XXXXXX+ jm-*########3V O                             =;#&>   ",
" X e&.&8 +                                             %            O    OX Nc*########3V O                            >=;;=    ",
"+ r,-.:y +                                            % N0000000700h O    Of>l-$#######3B O                            X&###a O ",
"X 6o=&e> O                                           X Nv:ooooooo:zh O     fOx4$#######3M f                             9-$&, % ",
"X k@=op X                                           % jm-=.....=*ng +      % Dc3######;,M f                           + 8@.&1 % ",
"X 9@=o0 %                                          +f>l-$#####$@ngO+       O x43#####*-zh                             + r@.&w % ",
"% t@=@7 %                                         Of b&$#####.4Fh+f       Of%b4$#####$&Sf                             + 5&$&w % ",
"X so=:q %                                         + D43#####.4Ah f        Of>l&$####*#3B O                            + r:=&1 X ",
" i=$&eX O                                        O jm3$####$4ZM %         + 2v3$####*;AM O                            O  k@$;0 %",
" 0:=os X                                         O>l&$####*#3B %f         O Nc3#####.@ng+                              X ao=o6 X",
" 7o=@9 %                                        X xc3######-Sg+f           +b-*####*;ZC +                              % 0o=@9 X",
" 7o=@9 X                                       +fjm-$####*;Ah O          O jv;#####$4zh%f                              % 7o=@9 X",
" 7o=@9 X                                      Of%b&$#####$&Bf+           + x4*####*;3V +                               % 7o=@9 X",
" 7o=@9 X                                      + jv3#####$4zh O          +f8m-*####*-zh+f                               % 7o=@9 X",
" 7o=@9 X                                      f b&$####*;=C +           % x43######3V O                                % 7o=@9 X",
" 7o=@9 X                                     O jv;#####$4zh+O          +fjm-$####*-zh                                  % 7o=@9 X",
" 7o=@9 X                                     + x;#####*#3Vf+          Of b4$####*;=M +                                 % 7o=@9 X",
" 7o=@9 X                                     + l&*####*-ZM f          + Dc3####*$&ng+                                  % 7o=@9 X",
" 7o=@9 X                                    +fjm-*#####-ng+          + 8v3#####$&zh O                                  % 7o=@9 X",
" 7o=@9 %                                    %fDc3*#####3B O         +f l-*####$4ZM f                                   % 0o=@9 X",
" 0:=os X                                    % b43#####;=M f        OO x######$-=B +                                    X ao=o6 X",
" i=$&eX O                                  OO b4*####*;Ah f        % Dc3$###$;3Vf+                                    O  k@$;0 %",
"X so=:q %                                  +f>l&$####*-zh         % Nm-$###$;3Vg+f                                    + r:=&1 X ",
"% t@=@7 %                                  +f2l-$####*&Sg        X jv-$###$#3ng%f                                     + 5&$&w % ",
"X 9@=o0 %                                  +f2l-$####*-Sh      +% jm-$###$;-Vg%f                                      + r@.&w % ",
"X k@=op X                                  +f8l-$####*;Zh+f  +Xf Nm&$###.4=ng+f                                       + 8@.&1 % ",
"X 6o=&e> O                                 OfOb4$#####;3C XXX  Xxc-.##*.&ZBf+O                                          9-$&, % ",
"+ r,-.:y +                                  % xc3#######AC   8ue43$##$#@zC %O                                          X&###a O ",
" X e&.&8 +                                  %fNc#*######-Z66614o$*#*.43S8 %f                                           >=;;=    ",
" % ,&$-eO                                   OO+l;$######$-@oo&*$#*$$@ACg +f                                             =;#&>   ",
" O y$##->                                    + jv3$######*$$$$#*$$&3n8f +                                            % 9-$&7 O  ",
"    =;;=                                      + Nv-.$*####**$$.#&3n5g +O                                             % d&.@2 +  ",
"   X-#*-< %                                    O jb&-;*$$$*#;&@A02g  +                                               % 1&.&r +  ",
"  O i@.&w %                                    Of Xyxe.&&&=Z6a5>f  O                                                % u&$.or +  ",
"  + 5@.&1 %                                      O  %>8888>>Xf   O                                                  X to=oq %   ",
"  + r@$$@s X                                      O            O                                                   % a@..o7 %   ",
"   % 0o=@t %                                                                                                       % 0o=ot %    ",
"   % a@$.o7 %                                                                                                     + 5@$$@s %    ",
"    X to=oq +                                                                                                     O i@.&w %     ",
"    % u&$.op O                                                                                                      ;;*-< %     ",
"     % w&$*-                                                                                                     + 5.;;;        ",
"     + 6;*;.r O                                                                                                 O 8=&$;1X       ",
"        -*$@d X                                                                                                 X to..:2 +      ",
"       %eo.-d8 %                                                                                               %  e&.@d2 O      ",
"      + Ow;.@d  %                                                                                             O  <o.;,2 %       ",
"       X 7:=.@<X O                                                                                              so=.ot >        ",
"       + 5=-$=:2 +                                                                                            % &$##-p +        ",
"        % r&-$-k %                                                                                           X 0*#*o7 %         ",
"         X a$#$oq X                                                                                         X i@;$-u %          ",
"          + &$#$@p X                                                                                       % 2#;$=:5 +          ",
"            qo=$;;5 %                                                                                     O +,&$.o6O O          ",
"          O  to.$&,X O                                                                                    % 1@.$&w  +           ",
"           +  1@$$@w %                                                                                   X to$*-=X %            ",
"            % %,-*$@6 X                                                                                 X qo$#$&5 %             ",
"             % 2-##$ou X                                                                               X i@**.op %              ",
"              % io$*$@p %                                                                             % 2-;$.oq %               ",
"               % 0o.*;$,% O                                                                          % e;;*$@6 %O               ",
"                % 9o$*#@1                                                                           O 9o#*$&w OO                ",
"                 + 1@;*$ot % O                                                                    O  0o.*#&=% O                 ",
"                   Od.-$##oi  +                                                                 +  8;-**;..5 +                  ",
"                   % p@$$##;5>  O                                                              + X8d&$*$ou %O                   ",
"                    > qo-$#.:<8+ +                                                           O% 8u:.#$-o6 X                     ",
"                     X 9d&.#.#:a  %                                                         %  5@&.#.&,e +                      ",
"                      X X,o$$*.&p2 +%+                                                   O%% >y,;.#$@-r X                       ",
"                       > re#@.#=:1i+  X                                                 X   y9:.**.&17 >                        ",
"                        %  q1@=#=;:qar %X%                                           +XX 87ao@=#.;:<  X                         ",
"                         +>  w:$.$=@:w7%  X%                                       %X   a6:o.$$=:dkX X                          ",
"                           > 5s$o=*$=;:sqy  %XXO                                XXX  2uqo@=.*=@o9p %+                           ",
"                            %  at:;=$$=@:dqu   OXX%                         OXXX   0qe:o.$$=$:e0  >                             ",
"                             +> O0w:@=$$=-:oss9%   XXXXX               %XXXXO   ssu#:&=.*=&:.q2 X%                              ",
"                               X% r7u:;=$$..oo:<s<5     XXXXXXXXXXXXXXX     X6kt@oo#.$$=.:6ap  X                                ",
"                                 X  +p1:@=.*$..@o:wt6666               u<666e:oo$..*.=&:=p8  XO                                 ",
"                                  +X+ 5i0:o*..$$$.&o@@o@<<<<<<<<<<<<<<<;o@@o@.$$*...@:kyy  X%                                   ",
"                                     X   i5,:o-...$$$$$$@@@@@@@@@@@@@@@#$$$$$...#oo@ii>  %O                                     ",
"                                      +%   5y8e:&o;.$$$$$$$$$$$$$$$$$$$$$$$.#@@:,2rr   %+                                       ",
"                                         +%   >55><:&@@@$$$$$$$$$$$$$$$&@@&od8552   +%O                                         ",
"                                           OO%    >28282;&&&&&&&&&&&&-oi>2228    +O+                                            ",
"                                              OOO+      >8>>>>>>>>>>>>8      +OOO                                               ",
"                                                   OOOO                 OOOOO                                                   "
};
